<?xml version="1.0" standalone="no"?>
<!DOCTYPE svg PUBLIC "-//W3C//DTD SVG 20010904//EN"
 "http://www.w3.org/TR/2001/REC-SVG-20010904/DTD/svg10.dtd">
<svg version="1.0" xmlns="http://www.w3.org/2000/svg"
 width="96.000000pt" height="96.000000pt" viewBox="0 0 96.000000 96.000000"
 preserveAspectRatio="xMidYMid meet">

<g transform="translate(0.000000,96.000000) scale(0.100000,-0.100000)"
fill="#000000" stroke="none">
<path d="M333 738 c-246 -249 -261 -271 -250 -372 3 -30 11 -66 19 -80 23 -44
231 -248 273 -267 46 -21 102 -24 160 -8 55 15 195 151 195 189 0 30 -27 60
-53 60 -9 0 -50 -32 -91 -70 -118 -113 -143 -108 -295 52 -138 145 -136 161
27 321 89 87 103 97 136 97 50 0 81 -18 146 -84 55 -57 92 -70 118 -44 30 30
13 63 -72 146 -46 45 -91 82 -100 82 -24 0 -21 7 34 68 28 31 50 66 50 77 0
27 -29 55 -56 55 -13 0 -102 -82 -241 -222z"/>
<path d="M398 429 c-22 -13 -24 -62 -2 -83 13 -14 49 -16 233 -16 198 0 219 2
234 18 22 24 21 55 -1 75 -16 15 -47 17 -233 17 -127 0 -221 -5 -231 -11z"/>
</g>
</svg>
